PathFileType	4	(X/Y/Z)	Apose_0-50.trc
DataRate	CameraRate	NumFrames	NumMarkers	Units	OrigDataRate	OrigDataStartFrame	OrigNumFrames
30	30	6	22	m	30	10	50
Frame#	Time	Hip			RHip			RKnee			RAnkle			RBigToe			RSmallToe			RHeel			LHip			LKnee			LAnkle			LBigToe			LSmallToe			LHeel			Neck			Head			Nose			RShoulder			RElbow			RWrist			LShoulder			LElbow			LWrist		
		X1	Y1	Z1	X2	Y2	Z2	X3	Y3	Z3	X4	Y4	Z4	X5	Y5	Z5	X6	Y6	Z6	X7	Y7	Z7	X8	Y8	Z8	X9	Y9	Z9	X10	Y10	Z10	X11	Y11	Z11	X12	Y12	Z12	X13	Y13	Z13	X14	Y14	Z14	X15	Y15	Z15	X16	Y16	Z16	X17	Y17	Z17	X18	Y18	Z18	X19	Y19	Z19	X20	Y20	Z20	X21	Y21	Z21	X22	Y22	Z22
11	0.36666666666666664	0.03613430050608445	0.9213453667186757	0.3619421147540731	0.028853992871078087	0.8934697736944365	0.4782704754740334	0.00483243656676754	0.512384287097681	0.5060929815783295	-0.0073451075594992464	0.10357888265817601	0.516549339882766	0.18846974483182025	0.03351471769450619	0.5457445027491135	0.1461160524677647	0.03984518608666434	0.6144731615678906	-0.039614309939667344	0.039717827258172286	0.49900070295792187	0.028083030733615084	0.8919501908982944	0.24847096076442537	0.014656319259493258	0.5157731568585848	0.22591028288666992	0.004447973449888343	0.10956247089917696	0.20676705170774354	0.2157727226456964	0.04672527509540684	0.18379225633473553	0.1646269479005402	0.040966454023028696	0.1300653006183194	-0.030832094103870326	0.04562211875002865	0.22574297865127982	0.08003588932534096	1.5910215351140407	0.36268996589955477	0.25975529648481444	1.7554687309825057	0.340136328150968	0.24490044493124852	1.5775831401206024	0.32492767003805423	0.031122637850817675	1.4989807566329678	0.5411862231661829	0.07357949403665656	1.2361575401625144	0.7287955253851179	0.12579594662418525	1.0524203718448213	0.8999495753502953	0.019461087042635203	1.4795802270425455	0.15118408951144696	0.0029942209428832555	1.2136324278424477	-0.003742181642512077	0.054786392034285904	1.0187508681698736	-0.14477760931488598
12	0.4	0.035864271061510834	0.9220242642939327	0.36123990706596776	0.027248968328176335	0.8944093618057324	0.47715248060937476	0.005111633440556389	0.511996499404611	0.5036193958355286	-0.007432955610741592	0.10282701106868394	0.5181085621748217	0.18784026302707252	0.03534499101805344	0.5441428332037558	0.14373505218456434	0.039042207436591474	0.6149296155249468	-0.048050262646370676	0.0470210996290495	0.5111191856082568	0.0281482028837201	0.892704782484809	0.24978086672401442	0.012985445944203585	0.5155020397521552	0.22571425428583927	0.005391836509228894	0.10939172980097388	0.20840240126657433	0.21721927598672336	0.04690773908501423	0.18223079872978232	0.16520659828081977	0.04353555144259626	0.1272561241048503	-0.030041186326421783	0.045475361532638404	0.2274428131951813	0.07935926115245143	1.5931607853379446	0.36020702921338976	0.2628873930074868	1.7553097483647155	0.33671371246372006	0.24527616955178683	1.5771625972687993	0.32440966247843867	0.029261209369312296	1.4985797425577636	0.5399512300903054	0.06605906313825244	1.2454913075963	0.7206060563910537	0.12397432744126782	1.0520915688815027	0.898694603052167	0.020521025721424786	1.4790405488536311	0.15139620134069892	0.0050258105608124905	1.2145191350865963	-0.003956750978491306	0.06008607314724975	1.010662573836486	-0.1486446930588466
13	0.43333333333333335	0.035766100180456034	0.9205371902697599	0.3605092397570852	0.02733527501719583	0.8872189409891027	0.4724196934119399	0.0021667043053313134	0.5087789680575212	0.5026693084257744	-0.0140201135225689	0.1149350429893737	0.5084131531627584	0.1998936108144948	0.042559907633560524	0.5597321723489121	0.14346329110028921	0.041279692955217044	0.6145649216256087	-0.04224835495723766	0.03933385964813043	0.5023602208533333	0.02625671261388346	0.8873510399315033	0.24963151694895439	0.013610365600809778	0.5123484076117893	0.22503287806180805	0.0076272308869404695	0.11266221606230603	0.20791605313387407	0.22023503358730268	0.0513304341463832	0.17935088220174555	0.16826798792993508	0.04800181523444439	0.1244095202666508	-0.025993662794086825	0.048266082188142975	0.2253305562516243	0.07848247626552611	1.5958414073600182	0.36091870971641515	0.25855795862358794	1.751694785922149	0.33534931755186614	0.24105050525583568	1.5730387147306102	0.32402384394617556	0.030141787398323756	1.4970726434199004	0.5429059974007993	0.06833207119682598	1.2463306529572393	0.7219796493255064	0.1277808524168228	1.0529755711381679	0.9016199567347515	0.01857195824453392	1.4804074520701196	0.14672991490730722	0.0067787748896690056	1.2161797480413457	-0.0005278950809016075	0.06263033260947674	1.0138741434411969	-0.14273465563753351
14	0.4666666666666667	0.03317019030879849	0.9206394286330901	0.3596887579838623	0.028423900356596348	0.8862794647196202	0.4719597536039752	0.0018002207353252613	0.5072074210423101	0.5014031671349953	-0.01109161432372495	0.10630236340365372	0.517864806131039	0.20153947002383404	0.045156883206366676	0.562046728856394	0.14452576540086132	0.04200798492899816	0.6167384354879968	-0.05137916810214449	0.04705893314295017	0.5091741414854276	0.02706616114207959	0.8875834558818274	0.24883094485371388	0.013718465079318934	0.5127415707206382	0.22466857401457963	0.005510823598167713	0.11132388166271286	0.2083299152443211	0.21806939275641854	0.05052111048470182	0.18223934408717327	0.1660523750345118	0.047196171496793685	0.12735511462051166	-0.031416971955561805	0.049633353479892006	0.22642837580689432	0.07745061413870845	1.594562165336499	0.3613349737330666	0.26010475854064286	1.7523515746849998	0.3342677460259411	0.24547374297718882	1.575652749336265	0.32627433969293557	0.027422857324266803	1.495832500921502	0.5446256183616267	0.06227165465299234	1.2435575967220625	0.7203512352572082	0.12277547996512482	1.051414222749296	0.8980559466606626	0.017038249846298748	1.4791262161302243	0.14756212004847796	0.014380859368631534	1.2272810443607316	0.0006577315914556472	0.06554748083081934	1.014234916674545	-0.14240620236079155
15	0.5	0.033856585982304045	0.9218755856719969	0.3603916698470805	0.02816233828762469	0.8877148967530339	0.4717191684125077	0.0026482370363059425	0.5074635152043936	0.5022817792690164	-0.009197452090156637	0.10399200475064119	0.5190764425912211	0.19909850972228949	0.04305850973900363	0.5609575771010958	0.14318862592027648	0.04012914056356794	0.6178032619078434	-0.049462958162384586	0.04918945843367974	0.5098753913705241	0.027348306171300876	0.8876954167165955	0.24902373911041686	0.012686243376928707	0.5134790884827016	0.22303350643263087	0.006483869229461834	0.1116126236810474	0.2092597159752952	0.21762853592874987	0.050391381308319404	0.18189085630761967	0.16561009419618705	0.04707468434639252	0.12696805169667646	-0.030512951589643712	0.04982553964451105	0.22727402078215383	0.07718942609027098	1.5947135289659735	0.35821596423426855	0.25974281469627813	1.7544117681744635	0.33441129579966694	0.2449517201581136	1.5758854443505712	0.3259111410016946	0.0286756020579269	1.4987823012472705	0.5402955913608685	0.06372929043142293	1.245406232983135	0.7219862262630651	0.125103702573378	1.051445909124551	0.8975350783722323	0.018911077360553596	1.4795460555178201	0.1435301680023073	0.015807506960977626	1.2253647929543494	0.004918858299721394	0.06789141520607708	1.0131647480243706	-0.14154238176065134
16	0.5333333333333333	0.035421675502205666	0.9197140462784057	0.3597970336062961	0.02810379964368778	0.8879430434888337	0.47329702685261993	0.004969370761178496	0.5087626215045544	0.5012685243249851	-0.009904329339348301	0.10653963571841733	0.5177288724587646	0.19823302437117143	0.044668342472071486	0.5616110197326054	0.14394186920557683	0.02856508064846288	0.622168417081588	-0.048792081814105236	0.046701150255783606	0.509096277275882	0.027884078488760147	0.8867275871439725	0.24997622975515088	0.01350560966565244	0.5136041011784348	0.22276213392047678	-0.003093312956957958	0.11929383174885506	0.21323240482160039	0.2179211373487724	0.04988658377104805	0.18251481991997467	0.16585953425479386	0.04654746919857093	0.1275279588759885	-0.03056105255526419	0.04965990866109109	0.22759850786461908	0.07597788226132357	1.5925634060748537	0.35804654385986706	0.2587279782880168	1.7704471742201928	0.3352141552224711	0.24447537204685363	1.5785983167464084	0.3211245941358849	0.026687214031225974	1.4966487175933036	0.5419829059074757	0.06424919687804181	1.2441472144908972	0.7204001920367399	0.1247371655102843	1.051878221222843	0.8981801346759134	0.016857808322023642	1.4772241489235298	0.14381138835820037	0.012208471434021435	1.2110090982284794	-0.006203015158174914	0.07627404741884375	1.013612700193331	-0.14436401253079784
